<?xml version="1.0" encoding="UTF-8" standalone="no"?>
<svg
   xmlns:dc="http://purl.org/dc/elements/1.1/"
   xmlns:cc="http://creativecommons.org/ns#"
   xmlns:rdf="http://www.w3.org/1999/02/22-rdf-syntax-ns#"
   xmlns:svg="http://www.w3.org/2000/svg"
   xmlns="http://www.w3.org/2000/svg"
   id="svg8"
   version="1.1"
   viewBox="0 0 10.583332 10.583332"
   height="40"
   width="40">
  <defs
     id="defs2" />
  <metadata
     id="metadata5">
    <rdf:RDF>
      <cc:Work
         rdf:about="">
        <dc:format>image/svg+xml</dc:format>
        <dc:type
           rdf:resource="http://purl.org/dc/dcmitype/StillImage" />
        <dc:title></dc:title>
      </cc:Work>
    </rdf:RDF>
  </metadata>
  <g
     transform="translate(0,-286.41667)"
     id="layer1">
    <circle
       r="5.2916665"
       cy="291.70831"
       cx="5.2916665"
       id="path4494"
       style="fill:#485de1;fill-opacity:1;stroke:none;stroke-width:0.29871342;stroke-miterlimit:4;stroke-dasharray:none" />
    <path
       transform="matrix(0.26458333,0,0,0.26458333,0,286.41667)"
       id="path4494-6"
       d="M 20 4 A 15.999999 15.999999 0 0 0 4 20 A 15.999999 15.999999 0 0 0 20 36 A 15.999999 15.999999 0 0 0 36 20 A 15.999999 15.999999 0 0 0 20 4 z M 19.998047 7.9960938 C 20.509275 7.9960938 21.02037 8.192245 21.412109 8.5839844 L 31.394531 18.566406 C 31.767622 18.929316 32 19.435994 32 20 C 32 20.563986 31.767622 21.070689 31.394531 21.433594 L 21.412109 31.416016 C 20.628657 32.199468 19.367436 32.199468 18.583984 31.416016 C 17.800506 30.632537 17.800532 29.371343 18.583984 28.587891 L 25.171875 22 L 10 22 C 8.8920001 22 8 21.107969 8 20 C 8 18.891994 8.8920001 18 10 18 L 25.171875 18 L 18.583984 11.412109 C 17.800506 10.628631 17.800506 9.3674631 18.583984 8.5839844 C 18.975724 8.192245 19.486819 7.9960938 19.998047 7.9960938 z "
       style="fill:#ffffff;fill-opacity:1;stroke:none;stroke-width:0.90319663;stroke-miterlimit:4;stroke-dasharray:none" />
  </g>
</svg>
