<?xml version="1.0" encoding="UTF-8" standalone="no"?>
<svg
   xmlns:dc="http://purl.org/dc/elements/1.1/"
   xmlns:cc="http://creativecommons.org/ns#"
   xmlns:rdf="http://www.w3.org/1999/02/22-rdf-syntax-ns#"
   xmlns:svg="http://www.w3.org/2000/svg"
   xmlns="http://www.w3.org/2000/svg"
   id="svg8"
   version="1.1"
   viewBox="0 0 10.583332 10.583332"
   height="40"
   width="40">
  <defs
     id="defs2" />
  <metadata
     id="metadata5">
    <rdf:RDF>
      <cc:Work
         rdf:about="">
        <dc:format>image/svg+xml</dc:format>
        <dc:type
           rdf:resource="http://purl.org/dc/dcmitype/StillImage" />
        <dc:title></dc:title>
      </cc:Work>
    </rdf:RDF>
  </metadata>
  <g
     transform="translate(0,-286.41667)"
     id="layer1">
    <circle
       r="5.2916665"
       cy="291.70831"
       cx="5.2916665"
       id="path4494"
       style="fill:#485de1;fill-opacity:1;stroke:none;stroke-width:0.29871342;stroke-miterlimit:4;stroke-dasharray:none" />
    <path
       transform="matrix(0.26458333,0,0,0.26458333,0,286.41667)"
       id="path4494-6"
       d="M 20 4 A 15.999999 15.999999 0 0 0 4 20 A 15.999999 15.999999 0 0 0 20 36 A 15.999999 15.999999 0 0 0 36 20 A 15.999999 15.999999 0 0 0 20 4 z M 22.099609 8.0976562 C 22.610851 8.0976562 23.121932 8.2918544 23.513672 8.6835938 L 33.394531 18.566406 C 33.767622 18.929316 34 19.435994 34 20 C 34 20.563986 33.767622 21.070689 33.394531 21.433594 L 23.513672 31.316406 C 22.73022 32.099858 21.467046 32.099858 20.683594 31.316406 C 19.900115 30.532927 19.900142 29.26978 20.683594 28.486328 L 27.171875 22 L 8 22 C 6.8920001 22 6 21.107969 6 20 C 6 18.891994 6.8920001 18 8 18 L 27.171875 18 L 20.683594 11.513672 C 19.900115 10.730193 19.900142 9.4670457 20.683594 8.6835938 C 21.075333 8.2918544 21.588368 8.0976562 22.099609 8.0976562 z "
       style="fill:#ffffff;fill-opacity:1;stroke:none;stroke-width:0.90319663;stroke-miterlimit:4;stroke-dasharray:none" />
  </g>
</svg>
